<?xml version="1.0" standalone="no"?>
<svg viewBox="0 0 200 200" xmlns="http://www.w3.org/2000/svg">
  <path fill="#FF66A3" d="M35.7,-63.2C43.2,-57.4,44.2,-41.8,48.8,-29.6C53.4,-17.4,61.6,-8.7,63.8,1.3C65.9,11.2,62.1,22.4,54.6,29.6C47.1,36.8,36,40,26.3,48.8C16.6,57.6,8.3,72.2,-1.1,74.1C-10.5,76,-21.1,65.4,-34.6,58.7C-48.2,52.1,-64.8,49.6,-66.7,40.4C-68.6,31.3,-55.8,15.7,-54.4,0.8C-52.9,-14,-62.9,-28,-61.8,-38.6C-60.8,-49.3,-48.8,-56.5,-36.7,-59.6C-24.5,-62.6,-12.3,-61.5,0.9,-63C14.1,-64.6,28.1,-68.9,35.7,-63.2Z" transform="translate(100 100)" />
</svg>
